<mxfile host="app.diagrams.net" modified="2023-06-10T20:17:10.815Z" agent="Mozilla/5.0 (X11; Ubuntu; Linux x86_64; rv:109.0) Gecko/20100101 Firefox/114.0" etag="5WjDLZRxkCNte1u7MPxU" version="21.3.8" type="google">
  <diagram id="IlhI-_dWSkC2yM0h6eaZ" name="Page-1">
    <mxGraphModel grid="1" page="1" gridSize="10" guides="1" tooltips="1" connect="1" arrows="1" fold="1" pageScale="1" pageWidth="827" pageHeight="1169" math="0" shadow="0">
      <root>
        <mxCell id="0" />
        <mxCell id="1" parent="0" />
        <mxCell id="QOQkMfmNgNkZAxD0QGiV-1" value="&lt;div&gt;&lt;span style=&quot;font-family: monospace ; font-size: 0px&quot;&gt;Model%3E%3Croot%3E%3CmxCell%20id%3D%220%22%2F%3E%3CmxCell%20id%3D%221%22%20parent%3D%220%22%2F%3E%3CmxCell%20id%3D%222%22%20value%3D%22%26lt%3Bfont%20style%3D%26quot%3Bfont-size%3A%2014px%26quot%3B%26gt%3Bres%3A%3D%26amp%3Bnbsp%3BseleccionarOferta(nroExpediente%3AString)%3A%20Set%20%26amp%3Blt%3BDTEstudiante%26amp%3Bgt%3B%26amp%3Bnbsp%3B%26lt%3Bspan%20style%3D%26quot%3Bfont-family%3A%20monospace%20%3B%20font-size%3A%200px%26quot%3B%26gt%3B%253CmxGraphModel%253E%253Croot%253E%253CmxCell%2520id%253D%25220%2522%252F%253E%253CmxCell%2520id%253D%25221%2522%2520parent%253D%25220%2522%252F%253E%253CmxCell%2520id%253D%25222%2522%2520value%253D%2522%2526lt%253Bfont%2520style%253D%2526quot%253Bfont-size%253A%252018px%253B%2526quot%253B%2526gt%253B%2526lt%253Bu%2526gt%253B%253ASistema%2526lt%253B%252Fu%2526gt%253B%2526lt%253B%252Ffont%2526gt%253B%2522%2520style%253D%2522rounded%253D0%253BwhiteSpace%253Dwrap%253Bhtml%253D1%253B%2522%2520vertex%253D%25221%2522%2520parent%253D%25221%2522%253E%253CmxGeometry%2520x%253D%2522-450%2522%2520y%253D%2522-50%2522%2520width%253D%2522120%2522%2520height%253D%252260%2522%2520as%253D%2522geometry%2522%252F%253E%253C%252FmxCell%253E%253CmxCell%2520id%253D%25223%2522%2520value%253D%2522%2522%2520style%253D%2522endArrow%253Dnone%253Bhtml%253D1%253Brounded%253D0%253BentryX%253D0%253BentryY%253D0.5%253BentryDx%253D0%253BentryDy%253D0%253B%2522%2520edge%253D%25221%2522%2520target%253D%25222%2522%2520parent%253D%25221%2522%253E%253CmxGeometry%2520width%253D%252250%2522%2520height%253D%252250%2522%2520relative%253D%25221%2522%2520as%253D%2522geometry%2522%253E%253CmxPoint%2520x%253D%2522-740%2522%2520y%253D%2522-20%2522%2520as%253D%2522sourcePoint%2522%252F%253E%253CmxPoint%2520x%253D%2522-230%2522%2520y%253D%252250%2522%2520as%253D%2522targetPoint%2522%252F%253E%253C%252FmxGeometry%253E%253C%252FmxCell%253E%253CmxCell%2520id%253D%25224%2522%2520value%253D%2522%2522%2520style%253D%2522endArrow%253Dclassic%253Bhtml%253D1%253Brounded%253D0%253B%2522%2520edge%253D%25221%2522%2520parent%253D%25221%2522%253E%253CmxGeometry%2520width%253D%252250%2522%2520height%253D%252250%2522%2520relative%253D%25221%2522%2520as%253D%2522geometry%2522%253E%253CmxPoint%2520x%253D%2522-650%2522%2520y%253D%2522-40%2522%2520as%253D%2522sourcePoint%2522%252F%253E%253CmxPoint%2520x%253D%2522-560%2522%2520y%253D%2522-40%2522%2520as%253D%2522targetPoint%2522%252F%253E%253C%252FmxGeometry%253E%253C%252FmxCell%253E%253CmxCell%2520id%253D%25225%2522%2520value%253D%2522%2526lt%253Bfont%2520style%253D%2526quot%253Bfont-size%253A%252018px%253B%2526quot%253B%2526gt%253B%2526lt%253Bu%2526gt%253Be%253AEmpresa%2526lt%253B%252Fu%2526gt%253B%2526lt%253B%252Ffont%2526gt%253B%2522%2520style%253D%2522rounded%253D0%253BwhiteSpace%253Dwrap%253Bhtml%253D1%253B%2522%2520vertex%253D%25221%2522%2520parent%253D%25221%2522%253E%253CmxGeometry%2520x%253D%252210%2522%2520y%253D%2522-50%2522%2520width%253D%2522120%2522%2520height%253D%252260%2522%2520as%253D%2522geometry%2522%252F%253E%253C%252FmxCell%253E%253CmxCell%2520id%253D%25226%2522%2520value%253D%2522%2522%2520style%253D%2522endArrow%253Dnone%253Bhtml%253D1%253Brounded%253D0%253BexitX%253D1%253BexitY%253D0.5%253BexitDx%253D0%253BexitDy%253D0%253BentryX%253D0%253BentryY%253D0.5%253BentryDx%253D0%253BentryDy%253D0%253B%2522%2520edge%253D%25221%2522%2520source%253D%25222%2522%2520target%253D%25225%2522%2520parent%253D%25221%2522%253E%253CmxGeometry%2520width%253D%252250%2522%2520height%253D%252250%2522%2520relative%253D%25221%2522%2520as%253D%2522geometry%2522%253E%253CmxPoint%2520x%253D%2522-290%2522%2520y%253D%252280%2522%2520as%253D%2522sourcePoint%2522%252F%253E%253CmxPoint%2520x%253D%2522-240%2522%2520y%253D%252230%2522%2520as%253D%2522targetPoint%2522%252F%253E%253CArray%2520as%253D%2522points%2522%252F%253E%253C%252FmxGeometry%253E%253C%252FmxCell%253E%253CmxCell%2520id%253D%25227%2522%2520value%253D%2522%2526lt%253Bfont%2520style%253D%2526quot%253Bfont-size%253A%252018px%253B%2526quot%253B%2526gt%253B%2526lt%253Bu%2526gt%253Bs%253ASucursal%2526lt%253B%252Fu%2526gt%253B%2526lt%253B%252Ffont%2526gt%253B%2522%2520style%253D%2522rounded%253D0%253BwhiteSpace%253Dwrap%253Bhtml%253D1%253B%2522%2520vertex%253D%25221%2522%2520parent%253D%25221%2522%253E%253CmxGeometry%2520x%253D%2522-450%2522%2520y%253D%252260%2522%2520width%253D%2522120%2522%2520height%253D%252260%2522%2520as%253D%2522geometry%2522%252F%253E%253C%252FmxCell%253E%253CmxCell%2520id%253D%25228%2522%2520value%253D%2522%2522%2520style%253D%2522endArrow%253Dnone%253Bhtml%253D1%253Brounded%253D0%253BexitX%253D1%253BexitY%253D0.5%253BexitDx%253D0%253BexitDy%253D0%253BentryX%253D0.5%253BentryY%253D1%253BentryDx%253D0%253BentryDy%253D0%253B%2522%2520edge%253D%25221%2522%2520source%253D%25227%2522%2520target%253D%25225%2522%2520parent%253D%25221%2522%253E%253CmxGeometry%2520width%253D%252250%2522%2520height%253D%252250%2522%2520relative%253D%25221%2522%2520as%253D%2522geometry%2522%253E%253CmxPoint%2520x%253D%2522-270%2522%2520y%253D%2522190%2522%2520as%253D%2522sourcePoint%2522%252F%253E%253CmxPoint%2520x%253D%2522-220%2522%2520y%253D%2522140%2522%2520as%253D%2522targetPoint%2522%252F%253E%253CArray%2520as%253D%2522points%2522%253E%253CmxPoint%2520x%253D%252270%2522%2520y%253D%252290%2522%252F%253E%253C%252FArray%253E%253C%252FmxGeometry%253E%253C%252FmxCell%253E%253CmxCell%2520id%253D%25229%2522%2520value%253D%2522%2526lt%253Bfont%2520style%253D%2526quot%253Bfont-size%253A%252014px%253B%2526quot%253B%2526gt%253B%2526lt%253Bfont%2520style%253D%2526quot%253B%2526quot%253B%2526gt%253B1.1%2520%253A%2520%2526lt%253B%252Ffont%2526gt%253BseleccionarSeccion(seccion%2520%253A%2520String)%2526lt%253B%252Ffont%2526gt%253B%2522%2520style%253D%2522text%253Bhtml%253D1%253BstrokeColor%253Dnone%253BfillColor%253Dnone%253Balign%253Dcenter%253BverticalAlign%253Dmiddle%253BwhiteSpace%253Dwrap%253Brounded%253D0%253BfontColor%253D%25234D9900%253B%2522%2520vertex%253D%25221%2522%2520parent%253D%25221%2522%253E%253CmxGeometry%2520x%253D%2522-291%2522%2520y%253D%252220%2522%2520width%253D%2522270%2522%2520height%253D%252230%2522%2520as%253D%2522geometry%2522%252F%253E%253C%252FmxCell%253E%253CmxCell%2520id%253D%252210%2522%2520value%253D%2522%2522%2520style%253D%2522endArrow%253Dclassic%253Bhtml%253D1%253Brounded%253D0%253B%2522%2520edge%253D%25221%2522%2520parent%253D%25221%2522%253E%253CmxGeometry%2520width%253D%252250%2522%2520height%253D%252250%2522%2520relative%253D%25221%2522%2520as%253D%2522geometry%2522%253E%253CmxPoint%2520x%253D%2522-100%2522%2520y%253D%252270%2522%2520as%253D%2522sourcePoint%2522%252F%253E%253CmxPoint%2520x%253D%2522-200%2522%2520y%253D%252270%2522%2520as%253D%2522targetPoint%2522%252F%253E%253C%252FmxGeometry%253E%253C%252FmxCell%253E%253CmxCell%2520id%253D%252211%2522%2520value%253D%2522%2526lt%253Bfont%2520style%253D%2526quot%253Bfont-size%253A%252014px%253B%2526quot%253B%2526gt%253B%2526lt%253Bfont%2520style%253D%2526quot%253B%2526quot%253B%2526gt%253B1%2520%253A%2526amp%253Bnbsp%253B%2526lt%253B%252Ffont%2526gt%253BseleccionarSeccion(seccion%2520%253A%2520String)%2526lt%253B%252Ffont%2526gt%253B%2522%2520style%253D%2522text%253Bhtml%253D1%253BstrokeColor%253Dnone%253BfillColor%253Dnone%253Balign%253Dcenter%253BverticalAlign%253Dmiddle%253BwhiteSpace%253Dwrap%253Brounded%253D0%253BfontColor%253D%2523FF6666%253B%2522%2520vertex%253D%25221%2522%2520parent%253D%25221%2522%253E%253CmxGeometry%2520x%253D%2522-341%2522%2520y%253D%2522-80%2522%2520width%253D%2522370%2522%2520height%253D%252230%2522%2520as%253D%2522geometry%2522%252F%253E%253C%252FmxCell%253E%253CmxCell%2520id%253D%252212%2522%2520value%253D%2522%2522%2520style%253D%2522endArrow%253Dclassic%253Bhtml%253D1%253Brounded%253D0%253B%2522%2520edge%253D%25221%2522%2520parent%253D%25221%2522%253E%253CmxGeometry%2520width%253D%252250%2522%2520height%253D%252250%2522%2520relative%253D%25221%2522%2520as%253D%2522geometry%2522%253E%253CmxPoint%2520x%253D%2522-201%2522%2520y%253D%2522-40%2522%2520as%253D%2522sourcePoint%2522%252F%253E%253CmxPoint%2520x%253D%2522-111%2522%2520y%253D%2522-40%2522%2520as%253D%2522targetPoint%2522%252F%253E%253C%252FmxGeometry%253E%253C%252FmxCell%253E%253CmxCell%2520id%253D%252213%2522%2520value%253D%2522%2522%2520style%253D%2522rounded%253D0%253BwhiteSpace%253Dwrap%253Bhtml%253D1%253B%2522%2520vertex%253D%25221%2522%2520parent%253D%25221%2522%253E%253CmxGeometry%2520x%253D%252220%2522%2520y%253D%2522150%2522%2520width%253D%2522120%2522%2520height%253D%252260%2522%2520as%253D%2522geometry%2522%252F%253E%253C%252FmxCell%253E%253CmxCell%2520id%253D%252214%2522%2520value%253D%2522%2526lt%253Bfont%2520style%253D%2526quot%253Bfont-size%253A%252018px%253B%2526quot%253B%2526gt%253B%2526lt%253Bu%2526gt%253B%253ASeccion%2526lt%253B%252Fu%2526gt%253B%2526lt%253B%252Ffont%2526gt%253B%2522%2520style%253D%2522rounded%253D0%253BwhiteSpace%253Dwrap%253Bhtml%253D1%253B%2522%2520vertex%253D%25221%2522%2520parent%253D%25221%2522%253E%253CmxGeometry%2520x%253D%252210%2522%2520y%253D%2522160%2522%2520width%253D%2522120%2522%2520height%253D%252260%2522%2520as%253D%2522geometry%2522%252F%253E%253C%252FmxCell%253E%253CmxCell%2520id%253D%252215%2522%2520value%253D%2522%2522%2520style%253D%2522endArrow%253Dnone%253Bhtml%253D1%253Brounded%253D0%253BentryX%253D0.5%253BentryY%253D1%253BentryDx%253D0%253BentryDy%253D0%253BexitX%253D0%253BexitY%253D0.5%253BexitDx%253D0%253BexitDy%253D0%253B%2522%2520edge%253D%25221%2522%2520source%253D%252214%2522%2520target%253D%25227%2522%2520parent%253D%25221%2522%253E%253CmxGeometry%2520width%253D%252250%2522%2520height%253D%252250%2522%2520relative%253D%25221%2522%2520as%253D%2522geometry%2522%253E%253CmxPoint%2520x%253D%2522-270%2522%2520y%253D%2522170%2522%2520as%253D%2522sourcePoint%2522%252F%253E%253CmxPoint%2520x%253D%2522-220%2522%2520y%253D%2522120%2522%2520as%253D%2522targetPoint%2522%252F%253E%253CArray%2520as%253D%2522points%2522%253E%253CmxPoint%2520x%253D%2522-390%2522%2520y%253D%2522190%2522%252F%253E%253C%252FArray%253E%253C%252FmxGeometry%253E%253C%252FmxCell%253E%253CmxCell%2520id%253D%252216%2522%2520value%253D%2522%2526lt%253Bfont%2520style%253D%2526quot%253Bfont-size%253A%252014px%253B%2526quot%253B%2526gt%253B1.1.1%2520%253A%2520se%2520%253A%253D%2520find(seccion%2520%253A%2520String)%2526lt%253B%252Ffont%2526gt%253B%2522%2520style%253D%2522text%253Bhtml%253D1%253BstrokeColor%253Dnone%253BfillColor%253Dnone%253Balign%253Dcenter%253BverticalAlign%253Dmiddle%253BwhiteSpace%253Dwrap%253Brounded%253D0%253B%2522%2520vertex%253D%25221%2522%2520parent%253D%25221%2522%253E%253CmxGeometry%2520x%253D%2522-291%2522%2520y%253D%2522130%2522%2520width%253D%2522260%2522%2520height%253D%252230%2522%2520as%253D%2522geometry%2522%252F%253E%253C%252FmxCell%253E%253CmxCell%2520id%253D%252217%2522%2520value%253D%2522%2522%2520style%253D%2522endArrow%253Dclassic%253Bhtml%253D1%253Brounded%253D0%253B%2522%2520edge%253D%25221%2522%2520parent%253D%25221%2522%253E%253CmxGeometry%2520width%253D%252250%2522%2520height%253D%252250%2522%2520relative%253D%25221%2522%2520as%253D%2522geometry%2522%253E%253CmxPoint%2520x%253D%2522-201%2522%2520y%253D%2522169.5%2522%2520as%253D%2522sourcePoint%2522%252F%253E%253CmxPoint%2520x%253D%2522-111%2522%2520y%253D%2522169.5%2522%2520as%253D%2522targetPoint%2522%252F%253E%253C%252FmxGeometry%253E%253C%252FmxCell%253E%253CmxCell%2520id%253D%252218%2522%2520value%253D%2522El%2520sistema%2520recuerda%2520la%2520Seccion%2520&#39;se&#39;%2522%2520style%253D%2522shape%253Dnote%253BwhiteSpace%253Dwrap%253Bhtml%253D1%253BbackgroundOutline%253D1%253BdarkOpacity%253D0.05%253BfillColor%253D%2523fff2cc%253BstrokeColor%253D%2523d6b656%253B%2522%2520vertex%253D%25221%2522%2520parent%253D%25221%2522%253E%253CmxGeometry%2520x%253D%2522-620%2522%2520y%253D%252280%2522%2520width%253D%252280%2522%2520height%253D%2522100%2522%2520as%253D%2522geometry%2522%252F%253E%253C%252FmxCell%253E%253CmxCell%2520id%253D%252219%2522%2520value%253D%2522%2522%2520style%253D%2522endArrow%253Dnone%253Bdashed%253D1%253Bhtml%253D1%253Brounded%253D0%253BexitX%253D1.038%253BexitY%253D0.5%253BexitDx%253D0%253BexitDy%253D0%253BexitPerimeter%253D0%253BentryX%253D0%253BentryY%253D1%253BentryDx%253D0%253BentryDy%253D0%253B%2522%2520edge%253D%25221%2522%2520source%253D%252218%2522%2520target%253D%25227%2522%2520parent%253D%25221%2522%253E%253CmxGeometry%2520width%253D%252250%2522%2520height%253D%252250%2522%2520relative%253D%25221%2522%2520as%253D%2522geometry%2522%253E%253CmxPoint%2520x%253D%2522-270%2522%2520y%253D%2522230%2522%2520as%253D%2522sourcePoint%2522%252F%253E%253CmxPoint%2520x%253D%2522-220%2522%2520y%253D%2522180%2522%2520as%253D%2522targetPoint%2522%252F%253E%253C%252FmxGeometry%253E%253C%252FmxCell%253E%253CmxCell%2520id%253D%252220%2522%2520value%253D%2522%2526lt%253Bfont%2520style%253D%2526quot%253Bfont-size%253A%252014px%253B%2526quot%253B%2526gt%253BseleccionarSeccion(seccion%2520%253A%2520String)%2526lt%253B%252Ffont%2526gt%253B%2522%2520style%253D%2522text%253Bhtml%253D1%253BstrokeColor%253Dnone%253BfillColor%253Dnone%253Balign%253Dcenter%253BverticalAlign%253Dmiddle%253BwhiteSpace%253Dwrap%253Brounded%253D0%253B%2522%2520vertex%253D%25221%2522%2520parent%253D%25221%2522%253E%253CmxGeometry%2520x%253D%2522-790%2522%2520y%253D%2522-80%2522%2520width%253D%2522370%2522%2520height%253D%252230%2522%2520as%253D%2522geometry%2522%252F%253E%253C%252FmxCell%253E%253C%252Froot%253E%253C%252FmxGraphModel%253E%26lt%3B%2Fspan%26gt%3B%26lt%3B%2Ffont%26gt%3B%22%20style%3D%22text%3Bhtml%3D1%3BstrokeColor%3Dnone%3BfillColor%3Dnone%3Balign%3Dcenter%3BverticalAlign%3Dmiddle%3BwhiteSpace%3Dwrap%3Brounded%3D0%3B%22%20vertex%3D%221%22%20parent%3D%221%22%3E%3CmxGeometry%20x%3D%221480%22%20y%3D%221332%22%20width%3D%22465%22%20height%3D%2230%22%20as%3D%22geometry%22%2F%3E%3C%2FmxCell%3E%3C%2Froot%3E%3C%2FmxGraphModel%3E&lt;/span&gt;&lt;span style=&quot;font-size: 0px&quot;&gt;&lt;font face=&quot;monospace&quot;&gt;seleccionarEstudiante(ci : String): bool&amp;nbsp;&lt;/font&gt;&lt;/span&gt;&lt;/div&gt;&lt;font style=&quot;font-size: 14px&quot;&gt;res:=&amp;nbsp;&lt;span style=&quot;font-size: 11pt ; font-family: &amp;#34;arial&amp;#34; ; background-color: transparent ; vertical-align: baseline&quot; id=&quot;docs-internal-guid-8f46aac5-7fff-1c12-eaf5-b7ca866ac236&quot;&gt;seleccionaEstudiante(ci: String, salario: Float): bool&lt;/span&gt;&amp;nbsp;&amp;nbsp;&lt;span style=&quot;font-family: monospace ; font-size: 0px&quot;&gt;%3CmxGraphModel%3E%3Croot%3E%3CmxCell%20id%3D%220%22%2F%3E%3CmxCell%20id%3D%221%22%20parent%3D%220%22%2F%3E%3CmxCell%20id%3D%222%22%20value%3D%22%26lt%3Bfont%20style%3D%26quot%3Bfont-size%3A%2018px%3B%26quot%3B%26gt%3B%26lt%3Bu%26gt%3B%3ASistema%26lt%3B%2Fu%26gt%3B%26lt%3B%2Ffont%26gt%3B%22%20style%3D%22rounded%3D0%3BwhiteSpace%3Dwrap%3Bhtml%3D1%3B%22%20vertex%3D%221%22%20parent%3D%221%22%3E%3CmxGeometry%20x%3D%22-450%22%20y%3D%22-50%22%20width%3D%22120%22%20height%3D%2260%22%20as%3D%22geometry%22%2F%3E%3C%2FmxCell%3E%3CmxCell%20id%3D%223%22%20value%3D%22%22%20style%3D%22endArrow%3Dnone%3Bhtml%3D1%3Brounded%3D0%3BentryX%3D0%3BentryY%3D0.5%3BentryDx%3D0%3BentryDy%3D0%3B%22%20edge%3D%221%22%20target%3D%222%22%20parent%3D%221%22%3E%3CmxGeometry%20width%3D%2250%22%20height%3D%2250%22%20relative%3D%221%22%20as%3D%22geometry%22%3E%3CmxPoint%20x%3D%22-740%22%20y%3D%22-20%22%20as%3D%22sourcePoint%22%2F%3E%3CmxPoint%20x%3D%22-230%22%20y%3D%2250%22%20as%3D%22targetPoint%22%2F%3E%3C%2FmxGeometry%3E%3C%2FmxCell%3E%3CmxCell%20id%3D%224%22%20value%3D%22%22%20style%3D%22endArrow%3Dclassic%3Bhtml%3D1%3Brounded%3D0%3B%22%20edge%3D%221%22%20parent%3D%221%22%3E%3CmxGeometry%20width%3D%2250%22%20height%3D%2250%22%20relative%3D%221%22%20as%3D%22geometry%22%3E%3CmxPoint%20x%3D%22-650%22%20y%3D%22-40%22%20as%3D%22sourcePoint%22%2F%3E%3CmxPoint%20x%3D%22-560%22%20y%3D%22-40%22%20as%3D%22targetPoint%22%2F%3E%3C%2FmxGeometry%3E%3C%2FmxCell%3E%3CmxCell%20id%3D%225%22%20value%3D%22%26lt%3Bfont%20style%3D%26quot%3Bfont-size%3A%2018px%3B%26quot%3B%26gt%3B%26lt%3Bu%26gt%3Be%3AEmpresa%26lt%3B%2Fu%26gt%3B%26lt%3B%2Ffont%26gt%3B%22%20style%3D%22rounded%3D0%3BwhiteSpace%3Dwrap%3Bhtml%3D1%3B%22%20vertex%3D%221%22%20parent%3D%221%22%3E%3CmxGeometry%20x%3D%2210%22%20y%3D%22-50%22%20width%3D%22120%22%20height%3D%2260%22%20as%3D%22geometry%22%2F%3E%3C%2FmxCell%3E%3CmxCell%20id%3D%226%22%20value%3D%22%22%20style%3D%22endArrow%3Dnone%3Bhtml%3D1%3Brounded%3D0%3BexitX%3D1%3BexitY%3D0.5%3BexitDx%3D0%3BexitDy%3D0%3BentryX%3D0%3BentryY%3D0.5%3BentryDx%3D0%3BentryDy%3D0%3B%22%20edge%3D%221%22%20source%3D%222%22%20target%3D%225%22%20parent%3D%221%22%3E%3CmxGeometry%20width%3D%2250%22%20height%3D%2250%22%20relative%3D%221%22%20as%3D%22geometry%22%3E%3CmxPoint%20x%3D%22-290%22%20y%3D%2280%22%20as%3D%22sourcePoint%22%2F%3E%3CmxPoint%20x%3D%22-240%22%20y%3D%2230%22%20as%3D%22targetPoint%22%2F%3E%3CArray%20as%3D%22points%22%2F%3E%3C%2FmxGeometry%3E%3C%2FmxCell%3E%3CmxCell%20id%3D%227%22%20value%3D%22%26lt%3Bfont%20style%3D%26quot%3Bfont-size%3A%2018px%3B%26quot%3B%26gt%3B%26lt%3Bu%26gt%3Bs%3ASucursal%26lt%3B%2Fu%26gt%3B%26lt%3B%2Ffont%26gt%3B%22%20style%3D%22rounded%3D0%3BwhiteSpace%3Dwrap%3Bhtml%3D1%3B%22%20vertex%3D%221%22%20parent%3D%221%22%3E%3CmxGeometry%20x%3D%22-450%22%20y%3D%2260%22%20width%3D%22120%22%20height%3D%2260%22%20as%3D%22geometry%22%2F%3E%3C%2FmxCell%3E%3CmxCell%20id%3D%228%22%20value%3D%22%22%20style%3D%22endArrow%3Dnone%3Bhtml%3D1%3Brounded%3D0%3BexitX%3D1%3BexitY%3D0.5%3BexitDx%3D0%3BexitDy%3D0%3BentryX%3D0.5%3BentryY%3D1%3BentryDx%3D0%3BentryDy%3D0%3B%22%20edge%3D%221%22%20source%3D%227%22%20target%3D%225%22%20parent%3D%221%22%3E%3CmxGeometry%20width%3D%2250%22%20height%3D%2250%22%20relative%3D%221%22%20as%3D%22geometry%22%3E%3CmxPoint%20x%3D%22-270%22%20y%3D%22190%22%20as%3D%22sourcePoint%22%2F%3E%3CmxPoint%20x%3D%22-220%22%20y%3D%22140%22%20as%3D%22targetPoint%22%2F%3E%3CArray%20as%3D%22points%22%3E%3CmxPoint%20x%3D%2270%22%20y%3D%2290%22%2F%3E%3C%2FArray%3E%3C%2FmxGeometry%3E%3C%2FmxCell%3E%3CmxCell%20id%3D%229%22%20value%3D%22%26lt%3Bfont%20style%3D%26quot%3Bfont-size%3A%2014px%3B%26quot%3B%26gt%3B%26lt%3Bfont%20style%3D%26quot%3B%26quot%3B%26gt%3B1.1%20%3A%20%26lt%3B%2Ffont%26gt%3BseleccionarSeccion(seccion%20%3A%20String)%26lt%3B%2Ffont%26gt%3B%22%20style%3D%22text%3Bhtml%3D1%3BstrokeColor%3Dnone%3BfillColor%3Dnone%3Balign%3Dcenter%3BverticalAlign%3Dmiddle%3BwhiteSpace%3Dwrap%3Brounded%3D0%3BfontColor%3D%234D9900%3B%22%20vertex%3D%221%22%20parent%3D%221%22%3E%3CmxGeometry%20x%3D%22-291%22%20y%3D%2220%22%20width%3D%22270%22%20height%3D%2230%22%20as%3D%22geometry%22%2F%3E%3C%2FmxCell%3E%3CmxCell%20id%3D%2210%22%20value%3D%22%22%20style%3D%22endArrow%3Dclassic%3Bhtml%3D1%3Brounded%3D0%3B%22%20edge%3D%221%22%20parent%3D%221%22%3E%3CmxGeometry%20width%3D%2250%22%20height%3D%2250%22%20relative%3D%221%22%20as%3D%22geometry%22%3E%3CmxPoint%20x%3D%22-100%22%20y%3D%2270%22%20as%3D%22sourcePoint%22%2F%3E%3CmxPoint%20x%3D%22-200%22%20y%3D%2270%22%20as%3D%22targetPoint%22%2F%3E%3C%2FmxGeometry%3E%3C%2FmxCell%3E%3CmxCell%20id%3D%2211%22%20value%3D%22%26lt%3Bfont%20style%3D%26quot%3Bfont-size%3A%2014px%3B%26quot%3B%26gt%3B%26lt%3Bfont%20style%3D%26quot%3B%26quot%3B%26gt%3B1%20%3A%26amp%3Bnbsp%3B%26lt%3B%2Ffont%26gt%3BseleccionarSeccion(seccion%20%3A%20String)%26lt%3B%2Ffont%26gt%3B%22%20style%3D%22text%3Bhtml%3D1%3BstrokeColor%3Dnone%3BfillColor%3Dnone%3Balign%3Dcenter%3BverticalAlign%3Dmiddle%3BwhiteSpace%3Dwrap%3Brounded%3D0%3BfontColor%3D%23FF6666%3B%22%20vertex%3D%221%22%20parent%3D%221%22%3E%3CmxGeometry%20x%3D%22-341%22%20y%3D%22-80%22%20width%3D%22370%22%20height%3D%2230%22%20as%3D%22geometry%22%2F%3E%3C%2FmxCell%3E%3CmxCell%20id%3D%2212%22%20value%3D%22%22%20style%3D%22endArrow%3Dclassic%3Bhtml%3D1%3Brounded%3D0%3B%22%20edge%3D%221%22%20parent%3D%221%22%3E%3CmxGeometry%20width%3D%2250%22%20height%3D%2250%22%20relative%3D%221%22%20as%3D%22geometry%22%3E%3CmxPoint%20x%3D%22-201%22%20y%3D%22-40%22%20as%3D%22sourcePoint%22%2F%3E%3CmxPoint%20x%3D%22-111%22%20y%3D%22-40%22%20as%3D%22targetPoint%22%2F%3E%3C%2FmxGeometry%3E%3C%2FmxCell%3E%3CmxCell%20id%3D%2213%22%20value%3D%22%22%20style%3D%22rounded%3D0%3BwhiteSpace%3Dwrap%3Bhtml%3D1%3B%22%20vertex%3D%221%22%20parent%3D%221%22%3E%3CmxGeometry%20x%3D%2220%22%20y%3D%22150%22%20width%3D%22120%22%20height%3D%2260%22%20as%3D%22geometry%22%2F%3E%3C%2FmxCell%3E%3CmxCell%20id%3D%2214%22%20value%3D%22%26lt%3Bfont%20style%3D%26quot%3Bfont-size%3A%2018px%3B%26quot%3B%26gt%3B%26lt%3Bu%26gt%3B%3ASeccion%26lt%3B%2Fu%26gt%3B%26lt%3B%2Ffont%26gt%3B%22%20style%3D%22rounded%3D0%3BwhiteSpace%3Dwrap%3Bhtml%3D1%3B%22%20vertex%3D%221%22%20parent%3D%221%22%3E%3CmxGeometry%20x%3D%2210%22%20y%3D%22160%22%20width%3D%22120%22%20height%3D%2260%22%20as%3D%22geometry%22%2F%3E%3C%2FmxCell%3E%3CmxCell%20id%3D%2215%22%20value%3D%22%22%20style%3D%22endArrow%3Dnone%3Bhtml%3D1%3Brounded%3D0%3BentryX%3D0.5%3BentryY%3D1%3BentryDx%3D0%3BentryDy%3D0%3BexitX%3D0%3BexitY%3D0.5%3BexitDx%3D0%3BexitDy%3D0%3B%22%20edge%3D%221%22%20source%3D%2214%22%20target%3D%227%22%20parent%3D%221%22%3E%3CmxGeometry%20width%3D%2250%22%20height%3D%2250%22%20relative%3D%221%22%20as%3D%22geometry%22%3E%3CmxPoint%20x%3D%22-270%22%20y%3D%22170%22%20as%3D%22sourcePoint%22%2F%3E%3CmxPoint%20x%3D%22-220%22%20y%3D%22120%22%20as%3D%22targetPoint%22%2F%3E%3CArray%20as%3D%22points%22%3E%3CmxPoint%20x%3D%22-390%22%20y%3D%22190%22%2F%3E%3C%2FArray%3E%3C%2FmxGeometry%3E%3C%2FmxCell%3E%3CmxCell%20id%3D%2216%22%20value%3D%22%26lt%3Bfont%20style%3D%26quot%3Bfont-size%3A%2014px%3B%26quot%3B%26gt%3B1.1.1%20%3A%20se%20%3A%3D%20find(seccion%20%3A%20String)%26lt%3B%2Ffont%26gt%3B%22%20style%3D%22text%3Bhtml%3D1%3BstrokeColor%3Dnone%3BfillColor%3Dnone%3Balign%3Dcenter%3BverticalAlign%3Dmiddle%3BwhiteSpace%3Dwrap%3Brounded%3D0%3B%22%20vertex%3D%221%22%20parent%3D%221%22%3E%3CmxGeometry%20x%3D%22-291%22%20y%3D%22130%22%20width%3D%22260%22%20height%3D%2230%22%20as%3D%22geometry%22%2F%3E%3C%2FmxCell%3E%3CmxCell%20id%3D%2217%22%20value%3D%22%22%20style%3D%22endArrow%3Dclassic%3Bhtml%3D1%3Brounded%3D0%3B%22%20edge%3D%221%22%20parent%3D%221%22%3E%3CmxGeometry%20width%3D%2250%22%20height%3D%2250%22%20relative%3D%221%22%20as%3D%22geometry%22%3E%3CmxPoint%20x%3D%22-201%22%20y%3D%22169.5%22%20as%3D%22sourcePoint%22%2F%3E%3CmxPoint%20x%3D%22-111%22%20y%3D%22169.5%22%20as%3D%22targetPoint%22%2F%3E%3C%2FmxGeometry%3E%3C%2FmxCell%3E%3CmxCell%20id%3D%2218%22%20value%3D%22El%20sistema%20recuerda%20la%20Seccion%20&#39;se&#39;%22%20style%3D%22shape%3Dnote%3BwhiteSpace%3Dwrap%3Bhtml%3D1%3BbackgroundOutline%3D1%3BdarkOpacity%3D0.05%3BfillColor%3D%23fff2cc%3BstrokeColor%3D%23d6b656%3B%22%20vertex%3D%221%22%20parent%3D%221%22%3E%3CmxGeometry%20x%3D%22-620%22%20y%3D%2280%22%20width%3D%2280%22%20height%3D%22100%22%20as%3D%22geometry%22%2F%3E%3C%2FmxCell%3E%3CmxCell%20id%3D%2219%22%20value%3D%22%22%20style%3D%22endArrow%3Dnone%3Bdashed%3D1%3Bhtml%3D1%3Brounded%3D0%3BexitX%3D1.038%3BexitY%3D0.5%3BexitDx%3D0%3BexitDy%3D0%3BexitPerimeter%3D0%3BentryX%3D0%3BentryY%3D1%3BentryDx%3D0%3BentryDy%3D0%3B%22%20edge%3D%221%22%20source%3D%2218%22%20target%3D%227%22%20parent%3D%221%22%3E%3CmxGeometry%20width%3D%2250%22%20height%3D%2250%22%20relative%3D%221%22%20as%3D%22geometry%22%3E%3CmxPoint%20x%3D%22-270%22%20y%3D%22230%22%20as%3D%22sourcePoint%22%2F%3E%3CmxPoint%20x%3D%22-220%22%20y%3D%22180%22%20as%3D%22targetPoint%22%2F%3E%3C%2FmxGeometry%3E%3C%2FmxCell%3E%3CmxCell%20id%3D%2220%22%20value%3D%22%26lt%3Bfont%20style%3D%26quot%3Bfont-size%3A%2014px%3B%26quot%3B%26gt%3BseleccionarSeccion(seccion%20%3A%20String)%26lt%3B%2Ffont%26gt%3B%22%20style%3D%22text%3Bhtml%3D1%3BstrokeColor%3Dnone%3BfillColor%3Dnone%3Balign%3Dcenter%3BverticalAlign%3Dmiddle%3BwhiteSpace%3Dwrap%3Brounded%3D0%3B%22%20vertex%3D%221%22%20parent%3D%221%22%3E%3CmxGeometry%20x%3D%22-790%22%20y%3D%22-80%22%20width%3D%22370%22%20height%3D%2230%22%20as%3D%22geometry%22%2F%3E%3C%2FmxCell%3E%3C%2Froot%3E%3C%2FmxGraphModel%3E&lt;/span&gt;&lt;/font&gt;" style="text;html=1;strokeColor=none;fillColor=none;align=center;verticalAlign=middle;whiteSpace=wrap;rounded=0;" vertex="1" parent="1">
          <mxGeometry x="1390" y="1650" width="465" height="30" as="geometry" />
        </mxCell>
        <mxCell id="QOQkMfmNgNkZAxD0QGiV-2" value="&lt;font style=&quot;font-size: 18px;&quot;&gt;&lt;u&gt;:Sistema&lt;/u&gt;&lt;/font&gt;" style="rounded=0;whiteSpace=wrap;html=1;" vertex="1" parent="1">
          <mxGeometry x="1831" y="1653.88" width="120" height="60" as="geometry" />
        </mxCell>
        <mxCell id="QOQkMfmNgNkZAxD0QGiV-3" value="" style="endArrow=none;html=1;rounded=0;entryX=0;entryY=0.5;entryDx=0;entryDy=0;" edge="1" parent="1" target="QOQkMfmNgNkZAxD0QGiV-2">
          <mxGeometry width="50" height="50" relative="1" as="geometry">
            <mxPoint x="1421" y="1683.88" as="sourcePoint" />
            <mxPoint x="2051" y="1753.88" as="targetPoint" />
          </mxGeometry>
        </mxCell>
        <mxCell id="QOQkMfmNgNkZAxD0QGiV-4" value="" style="rounded=0;whiteSpace=wrap;html=1;" vertex="1" parent="1">
          <mxGeometry x="2298" y="1669.5900000000001" width="120" height="58" as="geometry" />
        </mxCell>
        <mxCell id="QOQkMfmNgNkZAxD0QGiV-5" value="&lt;font style=&quot;font-size: 14px&quot;&gt;&lt;u&gt;:Estudiante&lt;/u&gt;&lt;/font&gt;" style="rounded=0;whiteSpace=wrap;html=1;" vertex="1" parent="1">
          <mxGeometry x="2289" y="1657.5900000000001" width="120" height="58" as="geometry" />
        </mxCell>
        <mxCell id="QOQkMfmNgNkZAxD0QGiV-6" value="" style="endArrow=none;html=1;rounded=0;exitX=1;exitY=0.5;exitDx=0;exitDy=0;entryX=0;entryY=0.5;entryDx=0;entryDy=0;" edge="1" parent="1" target="QOQkMfmNgNkZAxD0QGiV-5">
          <mxGeometry width="50" height="50" relative="1" as="geometry">
            <mxPoint x="1949" y="1687.5900000000001" as="sourcePoint" />
            <mxPoint x="2039" y="1737.5900000000001" as="targetPoint" />
            <Array as="points" />
          </mxGeometry>
        </mxCell>
        <mxCell id="QOQkMfmNgNkZAxD0QGiV-7" value="1: e := find(&lt;span style=&quot;font-size: 14px&quot;&gt;ci:String&lt;/span&gt;)" style="text;html=1;strokeColor=none;fillColor=none;align=center;verticalAlign=middle;whiteSpace=wrap;rounded=0;" vertex="1" parent="1">
          <mxGeometry x="1938" y="1653.88" width="360" height="30" as="geometry" />
        </mxCell>
        <mxCell id="QOQkMfmNgNkZAxD0QGiV-8" value="El sistema devuelve TRUE si el estudiante fue asignado exitosamente y false en caso contario" style="shape=note;whiteSpace=wrap;html=1;backgroundOutline=1;darkOpacity=0.05;fillColor=#fff2cc;strokeColor=#d6b656;" vertex="1" parent="1">
          <mxGeometry x="1691" y="1721.63" width="120" height="131.12" as="geometry" />
        </mxCell>
        <mxCell id="QOQkMfmNgNkZAxD0QGiV-9" value="" style="endArrow=none;dashed=1;html=1;rounded=0;exitX=1.038;exitY=0.5;exitDx=0;exitDy=0;exitPerimeter=0;" edge="1" parent="1" source="QOQkMfmNgNkZAxD0QGiV-8" target="QOQkMfmNgNkZAxD0QGiV-2">
          <mxGeometry width="50" height="50" relative="1" as="geometry">
            <mxPoint x="2035" y="1967.7600000000002" as="sourcePoint" />
            <mxPoint x="1855" y="1732.7600000000002" as="targetPoint" />
          </mxGeometry>
        </mxCell>
        <mxCell id="QOQkMfmNgNkZAxD0QGiV-10" value="2: crearCargo(salario: Float, fecha: Date)()" style="text;html=1;strokeColor=none;fillColor=none;align=center;verticalAlign=middle;whiteSpace=wrap;rounded=0;" vertex="1" parent="1">
          <mxGeometry x="1938" y="1768.88" width="360" height="30" as="geometry" />
        </mxCell>
        <mxCell id="QOQkMfmNgNkZAxD0QGiV-11" value="2.1: create(salario: Float, fecha: Date)" style="text;html=1;strokeColor=none;fillColor=none;align=center;verticalAlign=middle;whiteSpace=wrap;rounded=0;" vertex="1" parent="1">
          <mxGeometry x="2373.25" y="1768.88" width="360" height="30" as="geometry" />
        </mxCell>
        <mxCell id="QOQkMfmNgNkZAxD0QGiV-12" value="&lt;u&gt;ce:CargoEfectivo&lt;br&gt;&lt;/u&gt;" style="rounded=0;whiteSpace=wrap;html=1;" vertex="1" parent="1">
          <mxGeometry x="2678.25" y="1768.88" width="120" height="51.12" as="geometry" />
        </mxCell>
        <mxCell id="QOQkMfmNgNkZAxD0QGiV-13" value="" style="endArrow=none;html=1;exitX=1;exitY=0.5;exitDx=0;exitDy=0;entryX=0;entryY=0.5;entryDx=0;entryDy=0;" edge="1" parent="1">
          <mxGeometry width="50" height="50" relative="1" as="geometry">
            <mxPoint x="2418.000000000001" y="1793.8500000000004" as="sourcePoint" />
            <mxPoint x="2678.25" y="1793.8500000000004" as="targetPoint" />
          </mxGeometry>
        </mxCell>
        <mxCell id="QOQkMfmNgNkZAxD0QGiV-14" value="&lt;u&gt;e:Estudiante&lt;br&gt;&lt;/u&gt;" style="rounded=0;whiteSpace=wrap;html=1;" vertex="1" parent="1">
          <mxGeometry x="2298" y="1768.88" width="120" height="51.12" as="geometry" />
        </mxCell>
        <mxCell id="QOQkMfmNgNkZAxD0QGiV-15" value="" style="endArrow=classic;html=1;rounded=0;entryX=0.918;entryY=0.056;entryDx=0;entryDy=0;entryPerimeter=0;" edge="1" parent="1">
          <mxGeometry width="50" height="50" relative="1" as="geometry">
            <mxPoint x="2088.13" y="1650.88" as="sourcePoint" />
            <mxPoint x="2147.879999999999" y="1650.88" as="targetPoint" />
          </mxGeometry>
        </mxCell>
        <mxCell id="QOQkMfmNgNkZAxD0QGiV-16" value="" style="endArrow=classic;html=1;rounded=0;entryX=0.918;entryY=0.056;entryDx=0;entryDy=0;entryPerimeter=0;" edge="1" parent="1">
          <mxGeometry width="50" height="50" relative="1" as="geometry">
            <mxPoint x="1658.6299999999974" y="1650.88" as="sourcePoint" />
            <mxPoint x="1718.3799999999992" y="1650.88" as="targetPoint" />
          </mxGeometry>
        </mxCell>
        <mxCell id="QOQkMfmNgNkZAxD0QGiV-17" value="" style="endArrow=none;html=1;entryX=0.328;entryY=1.022;entryDx=0;entryDy=0;entryPerimeter=0;exitX=1;exitY=1;exitDx=0;exitDy=0;rounded=0;" edge="1" parent="1" source="QOQkMfmNgNkZAxD0QGiV-10" target="QOQkMfmNgNkZAxD0QGiV-2">
          <mxGeometry width="50" height="50" relative="1" as="geometry">
            <mxPoint x="2298" y="1798.8800000000006" as="sourcePoint" />
            <mxPoint x="1870.3599999999997" y="1715.2000000000003" as="targetPoint" />
            <Array as="points">
              <mxPoint x="1870" y="1798.88" />
            </Array>
          </mxGeometry>
        </mxCell>
        <mxCell id="QOQkMfmNgNkZAxD0QGiV-18" value="" style="endArrow=classic;html=1;rounded=0;entryX=0.918;entryY=0.056;entryDx=0;entryDy=0;entryPerimeter=0;" edge="1" parent="1">
          <mxGeometry width="50" height="50" relative="1" as="geometry">
            <mxPoint x="2088.1299999999965" y="1768.8799999999992" as="sourcePoint" />
            <mxPoint x="2147.879999999999" y="1768.8799999999992" as="targetPoint" />
          </mxGeometry>
        </mxCell>
        <mxCell id="QOQkMfmNgNkZAxD0QGiV-19" value="" style="endArrow=classic;html=1;rounded=0;entryX=0.918;entryY=0.056;entryDx=0;entryDy=0;entryPerimeter=0;" edge="1" parent="1">
          <mxGeometry width="50" height="50" relative="1" as="geometry">
            <mxPoint x="2530.9999999999964" y="1768.8799999999992" as="sourcePoint" />
            <mxPoint x="2590.749999999999" y="1768.8799999999992" as="targetPoint" />
          </mxGeometry>
        </mxCell>
        <mxCell id="QOQkMfmNgNkZAxD0QGiV-20" value="2.2: vincularEstudianteCargo()" style="text;html=1;strokeColor=none;fillColor=none;align=center;verticalAlign=middle;whiteSpace=wrap;rounded=0;" vertex="1" parent="1">
          <mxGeometry x="2231" y="1851.63" width="360" height="30" as="geometry" />
        </mxCell>
        <mxCell id="QOQkMfmNgNkZAxD0QGiV-21" value="" style="endArrow=none;html=1;entryX=0.996;entryY=0.645;entryDx=0;entryDy=0;entryPerimeter=0;exitX=0.5;exitY=1;exitDx=0;exitDy=0;rounded=0;" edge="1" parent="1" source="QOQkMfmNgNkZAxD0QGiV-14" target="QOQkMfmNgNkZAxD0QGiV-14">
          <mxGeometry width="50" height="50" relative="1" as="geometry">
            <mxPoint x="2371" y="1848.88" as="sourcePoint" />
            <mxPoint x="2511" y="1778.88" as="targetPoint" />
            <Array as="points">
              <mxPoint x="2358" y="1848.88" />
              <mxPoint x="2451" y="1848.88" />
              <mxPoint x="2451" y="1801.88" />
            </Array>
          </mxGeometry>
        </mxCell>
        <mxCell id="QOQkMfmNgNkZAxD0QGiV-22" value="" style="endArrow=classic;html=1;rounded=0;entryX=0.918;entryY=0.056;entryDx=0;entryDy=0;entryPerimeter=0;" edge="1" parent="1">
          <mxGeometry width="50" height="50" relative="1" as="geometry">
            <mxPoint x="2381.1299999999974" y="1857.13" as="sourcePoint" />
            <mxPoint x="2440.879999999999" y="1857.13" as="targetPoint" />
          </mxGeometry>
        </mxCell>
      </root>
    </mxGraphModel>
  </diagram>
</mxfile>
